<svg width="31" height="39" viewBox="0 0 31 39" fill="none" xmlns="http://www.w3.org/2000/svg">
<g clip-path="url(#clip0_770_1369)">
<path d="M30.0655 1.5327C29.8354 1.053 29.3323 0.7098 28.213 0.6006C23.0299 0.0936 20.6041 0 15.2104 0C9.81282 0 7.46112 0.0858 2.20002 0.6006C1.07682 0.7098 0.577616 1.053 0.343616 1.5366C0.172016 1.8954 0.148616 2.3283 0.125216 2.8002C-0.155584 8.6073 0.0160162 24.4023 0.803816 33.2904C0.893516 34.3161 0.944216 35.4081 1.09632 36.3129C1.32642 37.6818 1.90752 38.0679 3.01122 38.2941C4.93782 38.688 8.72472 39.0039 15.2026 39.0039C21.6805 39.0039 25.4752 38.6919 27.4057 38.298C28.5094 38.0718 29.0905 37.6896 29.3206 36.3168C29.4727 35.412 29.5195 34.3239 29.6131 33.2943C30.397 24.4062 30.5725 8.6112 30.2878 2.8041C30.2605 2.3283 30.2371 1.8954 30.0655 1.5327ZM1.48242 3.4437C1.51752 2.73 1.40442 2.223 1.99332 1.833L10.5343 3.3462C10.8268 3.1824 15.0778 3.1785 15.2065 3.1785C15.3391 3.1785 19.5862 3.1824 19.8787 3.3462L28.3534 1.8174C28.9423 2.2074 28.8409 2.7261 28.876 3.4398C28.9657 5.2377 29.0047 8.0262 29.0008 11.2671L28.9969 11.3217L22.2187 11.7897C20.5339 11.9457 20.3389 12.3669 20.3311 13.1313C20.3311 13.1313 20.2531 18.3573 20.2063 20.1942C20.14 22.8033 19.9138 26.6955 19.9099 26.8242C19.8904 27.4482 19.4614 27.9084 18.8569 27.9552C18.8569 27.9552 16.6963 28.0332 15.2143 28.0176C15.2026 28.0176 15.1948 28.0176 15.1831 28.0176C15.1714 28.0176 15.1636 28.0176 15.1519 28.0176C13.6699 28.0293 11.5093 27.9552 11.5093 27.9552C10.9048 27.9045 10.4719 27.4482 10.4563 26.8242C10.4524 26.6955 10.2262 22.8033 10.1599 20.1942C10.1131 18.3573 10.0351 13.1313 10.0351 13.1313C10.0312 12.3669 9.83232 11.9457 8.14752 11.7897L1.36152 11.2593C1.35372 8.0223 1.39662 5.2338 1.48242 3.4437ZM15.1792 29.1681H15.2104L18.5878 29.133C21.2242 29.1486 20.9629 28.9263 21.3139 26.6448C21.4036 26.0754 22.6243 13.2483 22.6243 13.2483C22.6672 12.9519 22.831 12.8271 23.0689 12.7959L28.8058 12.0549C28.9111 12.0393 29.0047 12.1251 29.0008 12.2304C29.0008 12.2304 28.5328 33.462 27.9244 36.0438C27.7918 36.5976 27.6475 36.7302 27.1561 36.8433C27.1561 36.8433 24.2662 37.5141 15.1831 37.5219C6.09222 37.5102 3.20232 36.8394 3.20232 36.8394C2.71092 36.7224 2.56272 36.5976 2.43402 36.0399C1.82952 33.462 1.36152 12.2343 1.36152 12.2343C1.35762 12.129 1.45122 12.0471 1.55652 12.0588L7.29342 12.7998C7.53132 12.831 7.69902 12.9558 7.73802 13.2522C7.73802 13.2522 8.95872 26.0793 9.04842 26.6487C9.39942 28.9263 9.13812 29.1486 11.7745 29.1369L15.1519 29.172H15.1792V29.1681Z" fill="white"/>
<path d="M12.6714 31.5627C12.6597 31.5471 12.6402 31.5354 12.6168 31.5354H11.6925C11.6691 31.5354 11.6496 31.5471 11.6379 31.5627L9.71909 34.3629C9.70349 34.3824 9.71909 34.4136 9.74639 34.4136H10.6434C10.6629 34.4136 10.6863 34.4019 10.698 34.3863L11.1933 33.6687C11.2167 33.6336 11.2596 33.6141 11.2986 33.6141H13.0146C13.0575 33.6141 13.0965 33.6336 13.1199 33.6687L13.6152 34.3863C13.6269 34.4019 13.6464 34.4136 13.6698 34.4136H14.5668C14.5941 34.4136 14.6097 34.3863 14.5941 34.3629L12.6714 31.5627ZM12.6519 33.1578H11.6574C11.6067 33.1578 11.5755 33.1032 11.6067 33.0603L12.102 32.3349C12.1293 32.2959 12.18 32.2959 12.2073 32.3349L12.7065 33.0603C12.7299 33.1032 12.7026 33.1578 12.6519 33.1578Z" fill="white"/>
<path d="M9.68432 31.5315H5.07842C5.05112 31.5315 5.03552 31.5588 5.05112 31.5822L5.28902 31.9293C5.31242 31.9644 5.35532 31.9839 5.39432 31.9839H6.87242C6.90752 31.9839 6.93872 32.0112 6.93872 32.0463V34.3746C6.93872 34.3941 6.95432 34.4097 6.97382 34.4097H7.77722C7.79672 34.4097 7.81232 34.3941 7.81232 34.3746V32.0463C7.81232 32.0112 7.84352 31.9839 7.87862 31.9839H9.36062C9.40352 31.9839 9.44252 31.9644 9.46592 31.9293L9.70382 31.5822C9.72332 31.5627 9.71162 31.5315 9.68432 31.5315Z" fill="white"/>
<path d="M19.9958 31.5315H19.1924C19.1729 31.5315 19.1573 31.5471 19.1573 31.5666V33.5829C19.1573 33.6102 19.1261 33.6219 19.1027 33.6102L16.4429 31.5627C16.4195 31.5471 16.3883 31.5354 16.3571 31.5354H15.5615C15.542 31.5354 15.5264 31.551 15.5264 31.5705V34.3785C15.5264 34.398 15.542 34.4136 15.5615 34.4136H16.3649C16.3844 34.4136 16.4 34.398 16.4 34.3785V32.3622C16.4 32.3349 16.4312 32.3232 16.4546 32.3349L19.1144 34.3824C19.1378 34.398 19.169 34.4097 19.2002 34.4097H19.9919C20.0114 34.4097 20.027 34.3941 20.027 34.3746V31.5666C20.0309 31.551 20.0153 31.5315 19.9958 31.5315Z" fill="white"/>
<path d="M25.5491 34.3785L23.6225 32.8146C23.6069 32.799 23.6069 32.7717 23.6264 32.7561L25.5491 31.5705C25.5647 31.5627 25.5569 31.5354 25.5374 31.5354H24.5546C24.5195 31.5354 24.4883 31.5432 24.4571 31.5627L22.3628 32.8536C22.3394 32.8692 22.3082 32.8497 22.3082 32.8263V31.5705C22.3082 31.551 22.2926 31.5354 22.2731 31.5354H21.4697C21.4502 31.5354 21.4346 31.551 21.4346 31.5705V34.3785C21.4346 34.398 21.4502 34.4136 21.4697 34.4136H22.2731C22.2926 34.4136 22.3082 34.398 22.3082 34.3785V33.6063C22.3082 33.5829 22.3199 33.5634 22.3394 33.5517L23.0219 33.1305C23.0453 33.1149 23.0765 33.1188 23.0999 33.1344L24.6248 34.3707C24.656 34.398 24.6989 34.4097 24.7418 34.4097H25.5374C25.5608 34.4136 25.5686 34.3902 25.5491 34.3785Z" fill="white"/>
</g>
<defs>
<clipPath id="clip0_770_1369">
<rect width="30.4122" height="39" fill="white"/>
</clipPath>
</defs>
</svg>
