<svg width="25" height="24" viewBox="0 0 25 24" fill="none" xmlns="http://www.w3.org/2000/svg">
<path d="M21.5561 16.4404V19.1502C21.5571 19.4017 21.5055 19.6507 21.4045 19.8812C21.3035 20.1117 21.1554 20.3186 20.9697 20.4887C20.784 20.6587 20.5647 20.7882 20.3259 20.8688C20.0871 20.9494 19.8341 20.9793 19.5831 20.9567C16.7982 20.6546 14.123 19.7049 11.7727 18.1837C9.58593 16.7969 7.73198 14.9466 6.34244 12.7643C4.81292 10.4079 3.86106 7.72506 3.56399 4.93314C3.54137 4.68337 3.57111 4.43163 3.65132 4.19395C3.73153 3.95628 3.86045 3.73787 4.02987 3.55265C4.19929 3.36742 4.40549 3.21943 4.63536 3.1181C4.86523 3.01677 5.11371 2.96431 5.36501 2.96408H8.08011C8.51933 2.95976 8.94514 3.11499 9.27816 3.40082C9.61119 3.68666 9.82871 4.0836 9.89018 4.51765C10.0048 5.38483 10.2173 6.23628 10.5237 7.05576C10.6455 7.37905 10.6718 7.73041 10.5996 8.06819C10.5275 8.40597 10.3598 8.71602 10.1164 8.9616L8.96705 10.1087C10.2554 12.37 12.1315 14.2424 14.3973 15.5282L15.5466 14.3811C15.7927 14.1382 16.1034 13.9708 16.4418 13.8988C16.7803 13.8268 17.1323 13.8531 17.4563 13.9746C18.2774 14.2804 19.1305 14.4925 19.9994 14.6069C20.4391 14.6688 20.8406 14.8898 21.1276 15.2278C21.4146 15.5659 21.5671 15.9975 21.5561 16.4404Z" stroke="#000404" stroke-width="1.5" stroke-linecap="round" stroke-linejoin="round"/>
</svg>
