<svg width="50" height="50" viewBox="0 0 50 50" fill="none" xmlns="http://www.w3.org/2000/svg">
<path d="M22.68 27.2878C22.5877 27.2676 22.4924 27.2643 22.3989 27.2782C21.4598 27.1689 20.7514 26.3744 20.7498 25.4293C20.7498 25.2118 20.6634 25.0031 20.5096 24.8493C20.3558 24.6955 20.1472 24.6091 19.9297 24.6091C19.7121 24.6091 19.5035 24.6955 19.3497 24.8493C19.1959 25.0031 19.1095 25.2118 19.1095 25.4293C19.112 27.0074 20.1675 28.3899 21.6893 28.8075V29.6277C21.6893 29.8452 21.7757 30.0538 21.9295 30.2076C22.0833 30.3614 22.2919 30.4478 22.5094 30.4478C22.7269 30.4478 22.9355 30.3614 23.0894 30.2076C23.2432 30.0538 23.3296 29.8452 23.3296 29.6277V28.8572C25.086 28.4895 26.2797 26.8537 26.0952 25.0688C25.9102 23.284 24.4064 21.9277 22.6119 21.9273C21.5836 21.9273 20.7498 21.0935 20.7498 20.0651C20.7498 19.0368 21.5836 18.203 22.6119 18.203C23.6403 18.203 24.4741 19.0367 24.4741 20.0651C24.4741 20.2826 24.5605 20.4912 24.7143 20.645C24.8681 20.7989 25.0767 20.8853 25.2942 20.8853C25.5117 20.8853 25.7203 20.7989 25.8742 20.645C26.028 20.4912 26.1144 20.2826 26.1144 20.0651C26.112 18.408 24.9511 16.9787 23.3296 16.6367V15.8903C23.3296 15.6728 23.2432 15.4642 23.0894 15.3103C22.9355 15.1565 22.7269 15.0701 22.5094 15.0701C22.2919 15.0701 22.0833 15.1565 21.9295 15.3103C21.7757 15.4642 21.6893 15.6728 21.6893 15.8903V16.6868C19.9969 17.1489 18.9077 18.792 19.1407 20.5309C19.3737 22.2697 20.8576 23.5674 22.6119 23.5671C23.6268 23.5671 24.4545 24.3797 24.4729 25.394C24.4917 26.4084 23.694 27.2509 22.68 27.2878Z" fill="#C64994"/>
<path d="M10.7188 22.8103C10.7188 29.3786 16.0433 34.7032 22.6117 34.7032C29.18 34.7032 34.5046 29.3786 34.5046 22.8103C34.5046 16.2419 29.18 10.9174 22.6117 10.9174C16.0465 10.9245 10.7264 16.2451 10.7188 22.8103ZM22.6117 12.5576C28.2741 12.5576 32.8643 17.1478 32.8643 22.8103C32.8643 28.4728 28.2741 33.0629 22.6117 33.0629C16.9492 33.0629 12.359 28.4728 12.359 22.8103C12.3655 17.1506 16.952 12.5641 22.6117 12.5576Z" fill="#C64994"/>
<path d="M38.548 36.725L32.1234 39.7606C31.6876 38.95 31.0457 38.2686 30.2624 37.7853C29.4792 37.302 28.5823 37.0338 27.6624 37.0078L21.7315 36.8448C20.7921 36.8179 19.8709 36.58 19.036 36.1488L18.4325 35.8361C16.9101 35.0426 15.2183 34.6291 13.5014 34.6309C11.7845 34.6327 10.0936 35.0497 8.57277 35.8465L8.6104 34.4793C8.61339 34.3716 8.59513 34.2644 8.55668 34.1638C8.51823 34.0631 8.46033 33.9711 8.38629 33.8928C8.31226 33.8146 8.22353 33.7517 8.12518 33.7077C8.02684 33.6638 7.92079 33.6396 7.81311 33.6367L1.30957 33.4578C1.20191 33.4548 1.09471 33.4731 0.994111 33.5116C0.89351 33.55 0.801474 33.6079 0.723263 33.682C0.645052 33.756 0.582199 33.8448 0.538294 33.9431C0.49439 34.0415 0.470295 34.1475 0.467387 34.2552L0.0745374 48.5266C0.0715343 48.6343 0.08978 48.7415 0.128232 48.8422C0.166684 48.9428 0.224589 49.0349 0.298638 49.1132C0.372688 49.1914 0.461431 49.2543 0.559797 49.2983C0.658163 49.3422 0.764225 49.3664 0.871923 49.3693L7.37536 49.5483H7.39781C7.61151 49.5484 7.8168 49.465 7.96998 49.316C8.12316 49.167 8.21213 48.9641 8.21796 48.7505L8.23672 48.0677L9.92622 47.1631C10.5891 46.8063 11.3649 46.7214 12.0892 46.9264L22.1785 49.7581C22.1961 49.7633 22.2136 49.7673 22.2318 49.7714C22.961 49.9239 23.704 50.0005 24.449 50C26.0269 50.001 27.5863 49.6607 29.0203 49.0025C29.0556 48.9864 29.0896 48.9676 29.122 48.9463L43.7505 39.4843C43.9261 39.3707 44.0516 39.1944 44.1015 38.9913C44.1515 38.7883 44.122 38.5738 44.0191 38.3918C42.9331 36.4647 40.5243 35.7307 38.548 36.725ZM1.73687 47.7522L2.0844 35.12L6.94807 35.2538L6.60053 47.8864L1.73687 47.7522ZM28.2815 47.5375C26.4998 48.3415 24.51 48.5637 22.5949 48.1723L12.5329 45.3478C11.4008 45.0278 10.1885 45.1603 9.1522 45.7174L8.2888 46.18L8.51987 37.7811C9.86311 36.8877 11.4215 36.3711 13.0324 36.2851C14.6433 36.1992 16.2478 36.5471 17.6784 37.2926L18.2819 37.6053C19.3366 38.1498 20.5001 38.4504 21.6866 38.4848L27.6179 38.6478C29.2838 38.6957 30.6986 39.8819 31.0366 41.5142L22.202 41.2703C21.7491 41.258 21.3723 41.6152 21.3594 42.0677C21.3535 42.2851 21.4341 42.4961 21.5837 42.6541C21.7332 42.8121 21.9394 42.9042 22.1568 42.9103L31.9064 43.1786H31.9293C32.1428 43.1784 32.3479 43.095 32.5009 42.946C32.6539 42.797 32.7428 42.5942 32.7486 42.3808C32.7587 42.0243 32.7321 41.6678 32.6693 41.3168L39.2589 38.2031C39.2653 38.2004 39.2717 38.1972 39.2782 38.1939C39.7345 37.963 40.2507 37.8772 40.7572 37.9482C41.2637 38.0192 41.7364 38.2434 42.1118 38.5909L28.2815 47.5375ZM23.4323 8.61152V0.820144C23.4323 0.602629 23.3458 0.394022 23.192 0.240215C23.0382 0.0864078 22.8296 0 22.6121 0C22.3946 0 22.186 0.0864078 22.0322 0.240215C21.8784 0.394022 21.792 0.602629 21.792 0.820144V8.61152C21.792 8.82903 21.8784 9.03764 22.0322 9.19145C22.186 9.34525 22.3946 9.43166 22.6121 9.43166C22.8296 9.43166 23.0382 9.34525 23.192 9.19145C23.3458 9.03764 23.4323 8.82903 23.4323 8.61152ZM29.5833 8.61152V4.92087C29.5833 4.70335 29.4969 4.49474 29.3431 4.34094C29.1893 4.18713 28.9807 4.10072 28.7632 4.10072C28.5457 4.10072 28.3371 4.18713 28.1833 4.34094C28.0295 4.49474 27.943 4.70335 27.943 4.92087V8.61152C27.943 8.82903 28.0295 9.03764 28.1833 9.19145C28.3371 9.34525 28.5457 9.43166 28.7632 9.43166C28.9807 9.43166 29.1893 9.34525 29.3431 9.19145C29.4969 9.03764 29.5833 8.82903 29.5833 8.61152ZM17.2812 8.61152V4.92087C17.2812 4.70335 17.1948 4.49474 17.041 4.34094C16.8871 4.18713 16.6785 4.10072 16.461 4.10072C16.2435 4.10072 16.0349 4.18713 15.8811 4.34094C15.7273 4.49474 15.6409 4.70335 15.6409 4.92087V8.61152C15.6409 8.82903 15.7273 9.03764 15.8811 9.19145C16.0349 9.34525 16.2435 9.43166 16.461 9.43166C16.6785 9.43166 16.8871 9.34525 17.041 9.19145C17.1948 9.03764 17.2812 8.82903 17.2812 8.61152Z" fill="#C64994"/>
</svg>
