<svg width="50" height="50" viewBox="0 0 50 50" fill="none" xmlns="http://www.w3.org/2000/svg">
<g clip-path="url(#clip0_73_397)">
<path d="M15.6127 15.9981C10.8837 18.7817 8.11777 23.0077 7.25684 24.4758C7.16468 24.6329 7.1183 24.8127 7.12294 24.9949C7.12759 25.177 7.18306 25.3542 7.28311 25.5064C8.7458 27.7388 15.1646 36.5879 25 36.5879C34.8354 36.5879 41.2542 27.7387 42.7169 25.5065C42.817 25.3543 42.8724 25.1771 42.8771 24.995C42.8817 24.8128 42.8353 24.633 42.7432 24.4759C41.4173 22.2149 35.5757 13.4121 25 13.4121C22.4631 13.4121 20.1994 13.9195 18.2044 14.7208M45.8496 49.2676H38.3578C37.5488 49.2676 36.893 48.6117 36.893 47.8027C36.893 46.9937 37.5488 46.3379 38.3578 46.3379H45.8496C46.1188 46.3379 46.3379 46.1188 46.3379 45.8496V38.3578C46.3379 37.5488 46.9937 36.893 47.8027 36.893C48.6117 36.893 49.2676 37.5488 49.2676 38.3578V45.8496C49.2676 47.7343 47.7343 49.2676 45.8496 49.2676ZM47.8027 13.107C46.9937 13.107 46.3379 12.4512 46.3379 11.6422V4.15039C46.3379 3.88115 46.1188 3.66211 45.8496 3.66211H38.3578C37.5488 3.66211 36.893 3.00625 36.893 2.19727C36.893 1.38828 37.5488 0.732422 38.3578 0.732422H45.8496C47.7343 0.732422 49.2676 2.26572 49.2676 4.15039V11.6422C49.2676 12.4512 48.6117 13.107 47.8027 13.107ZM2.19727 13.107C1.38828 13.107 0.732422 12.4512 0.732422 11.6422V4.15039C0.732422 2.26572 2.26572 0.732422 4.15039 0.732422H11.6422C12.4512 0.732422 13.107 1.38828 13.107 2.19727C13.107 3.00625 12.4512 3.66211 11.6422 3.66211H4.15039C3.88115 3.66211 3.66211 3.88115 3.66211 4.15039V11.6422C3.66211 12.4512 3.00625 13.107 2.19727 13.107ZM11.6422 49.2676H4.15039C2.26572 49.2676 0.732422 47.7343 0.732422 45.8496V38.3578C0.732422 37.5488 1.38828 36.893 2.19727 36.893C3.00625 36.893 3.66211 37.5488 3.66211 38.3578V45.8496C3.66211 46.1188 3.88115 46.3379 4.15039 46.3379H11.6422C12.4512 46.3379 13.107 46.9937 13.107 47.8027C13.107 48.6117 12.4512 49.2676 11.6422 49.2676Z" stroke="#5AA7B9" stroke-width="1.43555" stroke-miterlimit="10" stroke-linecap="round" stroke-linejoin="round"/>
<path d="M31.0188 29.2974C31.8854 28.0859 32.3972 26.6031 32.3972 25C32.3972 20.9147 29.0854 17.6029 25.0001 17.6029C20.9148 17.6029 17.603 20.9147 17.603 25C17.603 29.0852 20.9148 32.397 25.0001 32.397C26.3882 32.3988 27.7485 32.0079 28.924 31.2696" stroke="#5AA7B9" stroke-width="1.43555" stroke-miterlimit="10" stroke-linecap="round" stroke-linejoin="round"/>
<path d="M25.0001 27.026C26.119 27.026 27.0261 26.1189 27.0261 25C27.0261 23.8811 26.119 22.974 25.0001 22.974C23.8812 22.974 22.9741 23.8811 22.9741 25C22.9741 26.1189 23.8812 27.026 25.0001 27.026Z" stroke="#5AA7B9" stroke-width="1.43555" stroke-miterlimit="10" stroke-linecap="round" stroke-linejoin="round"/>
</g>
<defs>
<clipPath id="clip0_73_397">
<rect width="50" height="50" fill="white"/>
</clipPath>
</defs>
</svg>
