<svg width="50" height="50" viewBox="0 0 50 50" fill="none" xmlns="http://www.w3.org/2000/svg">
<g clip-path="url(#clip0_73_408)">
<path d="M39.5832 27.0833C39.3374 27.0839 39.0995 26.9968 38.9123 26.8375C38.5144 26.5042 29.1665 18.5292 29.1665 10.4167C29.1665 4.67292 33.8394 0 39.5832 0C45.3269 0 49.9998 4.67292 49.9998 10.4167C49.9998 18.5292 40.6519 26.5042 40.254 26.8375C40.0668 26.9968 39.8289 27.0839 39.5832 27.0833ZM39.5832 2.08333C34.9873 2.08333 31.2498 5.82083 31.2498 10.4167C31.2498 16.3917 37.4936 22.7 39.5832 24.6417C41.6728 22.6979 47.9165 16.3917 47.9165 10.4167C47.9165 5.82083 44.179 2.08333 39.5832 2.08333Z" fill="#5AA7B9"/>
<path d="M39.5833 14.5833C37.2854 14.5833 35.4167 12.7146 35.4167 10.4167C35.4167 8.11875 37.2854 6.25 39.5833 6.25C41.8812 6.25 43.75 8.11875 43.75 10.4167C43.75 12.7146 41.8812 14.5833 39.5833 14.5833ZM39.5833 8.33333C39.0469 8.35733 38.5404 8.58731 38.1693 8.97538C37.7982 9.36345 37.5911 9.87971 37.5911 10.4167C37.5911 10.9536 37.7982 11.4699 38.1693 11.858C38.5404 12.246 39.0469 12.476 39.5833 12.5C40.1197 12.476 40.6262 12.246 40.9973 11.858C41.3684 11.4699 41.5756 10.9536 41.5756 10.4167C41.5756 9.87971 41.3684 9.36345 40.9973 8.97538C40.6262 8.58731 40.1197 8.35733 39.5833 8.33333ZM6.25 47.9167C5.99513 47.9166 5.74911 47.8232 5.55833 47.6542C5.33333 47.4542 0 42.6771 0 37.7604C0 34.1708 2.80417 31.25 6.25 31.25C9.69583 31.25 12.5 34.1708 12.5 37.7604C12.5 42.6771 7.16667 47.4542 6.94167 47.6542C6.75089 47.8232 6.50487 47.9166 6.25 47.9167ZM6.25 33.3333C3.95208 33.3333 2.08333 35.3188 2.08333 37.7604C2.08333 40.8083 4.90833 44.0542 6.25 45.425C7.59167 44.0563 10.4167 40.8083 10.4167 37.7604C10.4167 35.3188 8.54792 33.3333 6.25 33.3333Z" fill="#5AA7B9"/>
<path d="M33.1542 50H6.25004C5.97377 50 5.70882 49.8903 5.51347 49.6949C5.31812 49.4996 5.20837 49.2346 5.20837 48.9583C5.20837 48.6821 5.31812 48.4171 5.51347 48.2218C5.70882 48.0264 5.97377 47.9167 6.25004 47.9167H33.1542C33.8167 47.9167 34.0646 47.4083 34.125 47.2521C34.1855 47.0958 34.3438 46.55 33.8542 46.1042L18.9125 32.5208C18.4438 32.0979 18.115 31.5422 17.9699 30.9278C17.8247 30.3133 17.8701 29.6693 18.1 29.0813C18.3247 28.4915 18.7238 27.9843 19.2442 27.6273C19.7646 27.2704 20.3815 27.0806 21.0125 27.0833H39.5834C39.8596 27.0833 40.1246 27.1931 40.3199 27.3884C40.5153 27.5838 40.625 27.8487 40.625 28.125C40.625 28.4013 40.5153 28.6662 40.3199 28.8616C40.1246 29.0569 39.8596 29.1667 39.5834 29.1667H21.0125C20.35 29.1667 20.1021 29.675 20.0417 29.8313C19.9813 29.9875 19.823 30.5333 20.3125 30.9792L35.2542 44.5625C36.2167 45.4396 36.5355 46.7896 36.0667 48.0021C35.8421 48.5918 35.4429 49.099 34.9226 49.456C34.4022 49.813 33.7853 50.0028 33.1542 50ZM6.25004 39.5833C5.71362 39.5593 5.20713 39.3294 4.83603 38.9413C4.46493 38.5532 4.25781 38.037 4.25781 37.5C4.25781 36.9631 4.46493 36.4468 4.83603 36.0587C5.20713 35.6706 5.71362 35.4407 6.25004 35.4167C6.78645 35.4407 7.29294 35.6706 7.66404 36.0587C8.03515 36.4468 8.24226 36.9631 8.24226 37.5C8.24226 38.037 8.03515 38.5532 7.66404 38.9413C7.29294 39.3294 6.78645 39.5593 6.25004 39.5833Z" fill="#5AA7B9"/>
</g>
<defs>
<clipPath id="clip0_73_408">
<rect width="50" height="50" fill="white"/>
</clipPath>
</defs>
</svg>
