<svg width="50" height="50" viewBox="0 0 50 50" fill="none" xmlns="http://www.w3.org/2000/svg">
<path d="M45.5879 35.4438C47.9414 35.4438 49.8494 37.352 49.8496 39.7056C49.8496 42.0593 47.9416 43.9673 45.5879 43.9673C43.7328 43.9671 42.1545 42.7817 41.5693 41.1265L41.5332 41.0269H29.0547L29.0195 41.1265C28.4344 42.7819 26.8553 43.9673 25 43.9673C23.1447 43.9673 21.5656 42.7819 20.9805 41.1265L20.9453 41.0269H8.4668L8.43066 41.1265C7.84553 42.7817 6.26725 43.9671 4.41211 43.9673C2.05843 43.9673 0.150391 42.0593 0.150391 39.7056C0.150601 37.3521 2.05856 35.4438 4.41211 35.4438C6.26729 35.444 7.84556 36.6303 8.43066 38.2856L8.4668 38.3853H20.9453L20.9805 38.2856C21.5656 36.6302 23.1447 35.4438 25 35.4438C26.8553 35.4438 28.4344 36.6302 29.0195 38.2856L29.0547 38.3853H41.5332L41.5693 38.2856C42.1544 36.6303 43.7327 35.444 45.5879 35.4438ZM4.41211 38.0854C3.51716 38.0854 2.79118 38.8107 2.79102 39.7056C2.79112 40.6006 3.51715 41.3267 4.41211 41.3267C5.30698 41.3264 6.03223 40.6005 6.03223 39.7056C6.03207 38.8108 5.30688 38.0857 4.41211 38.0854ZM25 38.0854C24.1051 38.0854 23.3791 38.8107 23.3789 39.7056C23.3789 40.6006 24.105 41.3267 25 41.3267C25.895 41.3267 26.6201 40.6006 26.6201 39.7056C26.62 38.8107 25.895 38.0854 25 38.0854ZM45.5879 38.0854C44.6931 38.0857 43.9679 38.8108 43.9678 39.7056C43.9678 40.6005 44.693 41.3264 45.5879 41.3267C46.4829 41.3267 47.209 40.6006 47.209 39.7056C47.2088 38.8107 46.4828 38.0854 45.5879 38.0854ZM19.9297 30.7358C20.3744 30.1579 21.2033 30.0501 21.7812 30.4946C22.4402 31.0015 23.0434 31.5775 23.5801 32.2124C24.0506 32.7694 23.9806 33.6019 23.4238 34.0728C22.8668 34.5436 22.0334 34.4744 21.5625 33.9175C21.1472 33.4262 20.6808 32.9806 20.1709 32.5884C19.5928 32.1437 19.4851 31.3139 19.9297 30.7358ZM40.5176 30.7358C40.9623 30.1578 41.7911 30.0502 42.3691 30.4946C43.0281 31.0015 43.6313 31.5774 44.168 32.2124C44.6387 32.7694 44.5687 33.6019 44.0117 34.0728C43.4548 34.5434 42.6222 34.4741 42.1514 33.9175C41.7362 33.4264 41.2695 32.9805 40.7598 32.5884C40.1817 32.1437 40.073 31.3139 40.5176 30.7358ZM8.46973 29.9058C9.08457 29.5137 9.90076 29.6944 10.293 30.3091C10.6851 30.9241 10.5047 31.7412 9.88965 32.1333C9.34732 32.479 8.84326 32.8814 8.38672 33.3345C7.86888 33.8481 7.03307 33.8444 6.51953 33.3267C6.00594 32.8088 6.00951 31.9731 6.52734 31.4595C7.11765 30.8739 7.76862 30.3528 8.46973 29.9058ZM29.0586 29.9058C29.6735 29.5139 30.4898 29.6943 30.8818 30.3091C31.2739 30.9241 31.0926 31.7412 30.4775 32.1333C29.9354 32.4789 29.432 32.8816 28.9756 33.3345C28.4578 33.8481 27.621 33.8444 27.1074 33.3267C26.594 32.8088 26.5975 31.973 27.1152 31.4595C27.7056 30.8738 28.3574 30.3529 29.0586 29.9058ZM13.9727 28.1138C14.8051 28.0616 15.6412 28.0989 16.4658 28.2241C17.1868 28.3339 17.6819 29.007 17.5723 29.728C17.4626 30.4491 16.7894 30.9452 16.0684 30.8354C15.4296 30.7386 14.7825 30.7101 14.1377 30.7505C13.4097 30.7958 12.7827 30.2422 12.7373 29.5142C12.6919 28.7863 13.2448 28.1593 13.9727 28.1138ZM34.5615 28.1138C35.3938 28.0617 36.2292 28.099 37.0537 28.2241C37.7747 28.3338 38.2708 29.0069 38.1611 29.728C38.0515 30.4489 37.3781 30.9448 36.6572 30.8354H36.6562C36.1774 30.7628 35.6938 30.7284 35.21 30.7329L34.7256 30.7505C33.9976 30.7958 33.3706 30.2422 33.3252 29.5142C33.2798 28.7862 33.8337 28.1592 34.5615 28.1138ZM38.5156 12.3657L38.2471 12.5005L38.5156 12.6343L44.2676 15.5103V9.48975L38.5156 12.3657ZM44.2676 18.4634L44.1846 18.4214L34.7031 13.6812C33.7303 13.1943 33.7303 11.8057 34.7031 11.3188L44.9717 6.18506L44.9736 6.18311C45.1629 6.0835 45.374 6.03241 45.5879 6.03271H45.5889C46.318 6.03298 46.9092 6.62383 46.9092 7.35303V27.9409C46.9092 28.6701 46.318 29.2619 45.5889 29.2622C44.8595 29.2622 44.2676 28.6703 44.2676 27.9409V18.4634Z" fill="#C64994" stroke="#161616" stroke-width="0.3"/>
</svg>
