<svg width="95" height="96" viewBox="0 0 95 96" fill="none" xmlns="http://www.w3.org/2000/svg">
<mask id="path-1-inside-1_129_520" fill="white">
<path d="M55 0C73.8562 0 83.2847 -0.00044247 89.1426 5.85742C95.0004 11.7153 95 21.1438 95 40V56C95 74.8562 95.0004 84.2847 89.1426 90.1426C83.2847 96.0004 73.8562 96 55 96H40C21.1438 96 11.7153 96.0004 5.85742 90.1426C-0.000442501 84.2847 0 74.8562 0 56V40C0 21.1438 -0.000442304 11.7153 5.85742 5.85742C11.7153 -0.00044247 21.1438 0 40 0H55ZM46.4326 31.0049C42.5859 30.9636 40.114 31.2113 39.0176 31.749C38.5833 31.9762 38.1903 32.2871 37.8389 32.6797C37.4666 33.1347 37.4141 33.3838 37.6826 33.4248C38.9239 33.6107 39.8031 34.0556 40.3203 34.7588L40.5068 35.1309C40.6518 35.3997 40.7965 35.8761 40.9414 36.5586C41.086 37.2409 41.1796 37.9956 41.2207 38.8223C41.3239 40.3325 41.3239 41.6257 41.2207 42.7012C41.1171 43.777 41.0191 44.615 40.9258 45.2148C40.8324 45.8146 40.6929 46.3007 40.5068 46.6729C40.3205 47.0451 40.1959 47.2729 40.1338 47.3555C40.0721 47.4376 40.0204 47.4892 39.9795 47.5098C39.7123 47.6128 39.428 47.6662 39.1416 47.666C38.8519 47.666 38.5003 47.5209 38.0869 47.2314C37.6734 46.9417 37.2436 46.543 36.7988 46.0361C36.3541 45.5292 35.8525 44.821 35.2939 43.9111C34.7357 43.0011 34.1565 41.9255 33.5566 40.6846L33.0605 39.7842C32.7503 39.2052 32.3259 38.3623 31.7881 37.2559C31.2499 36.149 30.7748 35.0782 30.3613 34.0439C30.196 33.6096 29.9471 33.2793 29.6162 33.0518L29.4609 32.958C29.3577 32.8755 29.1921 32.7877 28.9648 32.6943C28.7353 32.6005 28.4957 32.5332 28.251 32.4932L19.75 32.5547C18.8814 32.5547 18.2918 32.7516 17.9814 33.1445L17.8564 33.3301C17.7944 33.4336 17.7637 33.5995 17.7637 33.8271C17.7637 34.0547 17.826 34.3344 17.9502 34.665C19.1912 37.5817 20.5409 40.395 21.999 43.1045C23.4571 45.814 24.7245 47.9967 25.7998 49.6504C26.8753 51.3053 27.9709 52.8678 29.0879 54.3359C30.2049 55.8046 30.9449 56.7457 31.3066 57.1592C31.6688 57.5733 31.9534 57.8831 32.1602 58.0898L32.9355 58.834C33.432 59.3305 34.1612 59.9254 35.123 60.6182C36.0851 61.3114 37.1507 61.9942 38.3193 62.667C39.4881 63.3386 40.848 63.8867 42.3994 64.3105C43.9507 64.7349 45.461 64.9054 46.9297 64.8232H50.4971C51.2205 64.7608 51.769 64.5331 52.1416 64.1406L52.2656 63.9844C52.3486 63.8609 52.4264 63.669 52.498 63.4111C52.5706 63.1528 52.6064 62.8682 52.6064 62.5586C52.5853 61.6695 52.6529 60.8677 52.8076 60.1543C52.9623 59.441 53.1388 58.9022 53.3359 58.54C53.5329 58.1783 53.7556 57.8734 54.0029 57.626C54.2509 57.3779 54.4276 57.2275 54.5312 57.1758C54.6341 57.1238 54.7163 57.0886 54.7783 57.0674C55.2747 56.902 55.8593 57.0613 56.5322 57.5479C57.2045 58.0339 57.835 58.6344 58.4248 59.3477C59.0143 60.0616 59.7227 60.8628 60.5498 61.752C61.3776 62.6415 62.1014 63.3033 62.7217 63.7383L63.3418 64.1104C63.756 64.3587 64.2941 64.5862 64.9561 64.793C65.6169 64.9997 66.1962 65.0516 66.6934 64.9482L74.6357 64.8242C75.4213 64.8242 76.0332 64.6946 76.4668 64.4365C76.9012 64.178 77.159 63.8928 77.2422 63.583C77.3252 63.2729 77.3295 62.9207 77.2578 62.5273C77.1843 62.1354 77.1121 61.8612 77.04 61.7061C76.968 61.5507 76.9003 61.4216 76.8379 61.3184C75.804 59.4562 73.8286 57.1697 70.9121 54.46L70.8496 54.3984L70.7881 54.3369H70.7568C69.4333 53.0752 68.5952 52.2264 68.2441 51.792C67.6019 50.9646 67.4576 50.127 67.8086 49.2783C68.0566 48.6371 68.9887 47.2835 70.6016 45.2148C71.45 44.1184 72.122 43.2392 72.6182 42.5771C76.1968 37.8196 77.7484 34.779 77.2725 33.4551L77.0869 33.1455C76.9625 32.9594 76.6421 32.7891 76.126 32.6338C75.6083 32.4787 74.9465 32.4533 74.1396 32.5566L65.2041 32.6182C65.0593 32.5669 64.8523 32.5716 64.583 32.6338L64.1797 32.7275L64.0244 32.8047L63.9004 32.8984C63.7971 32.9602 63.6836 33.0687 63.5596 33.2236C63.436 33.3783 63.3326 33.5598 63.25 33.7666C62.2772 36.2695 61.1711 38.597 59.9297 40.748C59.1644 42.0306 58.4612 43.1419 57.8193 44.083C57.1783 45.0238 56.6401 45.7168 56.2061 46.1611C55.7716 46.6057 55.3795 46.9623 55.0273 47.2314C54.6756 47.5007 54.4066 47.6149 54.2207 47.5732C54.0343 47.5316 53.8585 47.4905 53.6924 47.4492C53.4032 47.263 53.1706 47.0098 52.9951 46.6895C52.8188 46.3689 52.6997 45.9646 52.6377 45.4785C52.576 44.9924 52.5397 44.5743 52.5293 44.2227C52.5196 43.8713 52.5239 43.3736 52.5449 42.7324C52.5664 42.0912 52.5762 41.6572 52.5762 41.4297C52.5762 40.6436 52.5913 39.7905 52.6221 38.8701C52.6534 37.9496 52.679 37.2199 52.7002 36.6826C52.7213 36.1448 52.7314 35.5754 52.7314 34.9756C52.7314 34.376 52.6942 33.9058 52.6221 33.5645C52.55 33.2228 52.4417 32.8895 52.2979 32.5713C52.1528 32.2507 51.9398 32.0022 51.6611 31.8262C51.382 31.6504 51.035 31.5109 50.6221 31.4072C49.5257 31.1591 48.1291 31.0257 46.4326 31.0049Z"/>
</mask>
<path d="M55 0C73.8562 0 83.2847 -0.00044247 89.1426 5.85742C95.0004 11.7153 95 21.1438 95 40V56C95 74.8562 95.0004 84.2847 89.1426 90.1426C83.2847 96.0004 73.8562 96 55 96H40C21.1438 96 11.7153 96.0004 5.85742 90.1426C-0.000442501 84.2847 0 74.8562 0 56V40C0 21.1438 -0.000442304 11.7153 5.85742 5.85742C11.7153 -0.00044247 21.1438 0 40 0H55ZM46.4326 31.0049C42.5859 30.9636 40.114 31.2113 39.0176 31.749C38.5833 31.9762 38.1903 32.2871 37.8389 32.6797C37.4666 33.1347 37.4141 33.3838 37.6826 33.4248C38.9239 33.6107 39.8031 34.0556 40.3203 34.7588L40.5068 35.1309C40.6518 35.3997 40.7965 35.8761 40.9414 36.5586C41.086 37.2409 41.1796 37.9956 41.2207 38.8223C41.3239 40.3325 41.3239 41.6257 41.2207 42.7012C41.1171 43.777 41.0191 44.615 40.9258 45.2148C40.8324 45.8146 40.6929 46.3007 40.5068 46.6729C40.3205 47.0451 40.1959 47.2729 40.1338 47.3555C40.0721 47.4376 40.0204 47.4892 39.9795 47.5098C39.7123 47.6128 39.428 47.6662 39.1416 47.666C38.8519 47.666 38.5003 47.5209 38.0869 47.2314C37.6734 46.9417 37.2436 46.543 36.7988 46.0361C36.3541 45.5292 35.8525 44.821 35.2939 43.9111C34.7357 43.0011 34.1565 41.9255 33.5566 40.6846L33.0605 39.7842C32.7503 39.2052 32.3259 38.3623 31.7881 37.2559C31.2499 36.149 30.7748 35.0782 30.3613 34.0439C30.196 33.6096 29.9471 33.2793 29.6162 33.0518L29.4609 32.958C29.3577 32.8755 29.1921 32.7877 28.9648 32.6943C28.7353 32.6005 28.4957 32.5332 28.251 32.4932L19.75 32.5547C18.8814 32.5547 18.2918 32.7516 17.9814 33.1445L17.8564 33.3301C17.7944 33.4336 17.7637 33.5995 17.7637 33.8271C17.7637 34.0547 17.826 34.3344 17.9502 34.665C19.1912 37.5817 20.5409 40.395 21.999 43.1045C23.4571 45.814 24.7245 47.9967 25.7998 49.6504C26.8753 51.3053 27.9709 52.8678 29.0879 54.3359C30.2049 55.8046 30.9449 56.7457 31.3066 57.1592C31.6688 57.5733 31.9534 57.8831 32.1602 58.0898L32.9355 58.834C33.432 59.3305 34.1612 59.9254 35.123 60.6182C36.0851 61.3114 37.1507 61.9942 38.3193 62.667C39.4881 63.3386 40.848 63.8867 42.3994 64.3105C43.9507 64.7349 45.461 64.9054 46.9297 64.8232H50.4971C51.2205 64.7608 51.769 64.5331 52.1416 64.1406L52.2656 63.9844C52.3486 63.8609 52.4264 63.669 52.498 63.4111C52.5706 63.1528 52.6064 62.8682 52.6064 62.5586C52.5853 61.6695 52.6529 60.8677 52.8076 60.1543C52.9623 59.441 53.1388 58.9022 53.3359 58.54C53.5329 58.1783 53.7556 57.8734 54.0029 57.626C54.2509 57.3779 54.4276 57.2275 54.5312 57.1758C54.6341 57.1238 54.7163 57.0886 54.7783 57.0674C55.2747 56.902 55.8593 57.0613 56.5322 57.5479C57.2045 58.0339 57.835 58.6344 58.4248 59.3477C59.0143 60.0616 59.7227 60.8628 60.5498 61.752C61.3776 62.6415 62.1014 63.3033 62.7217 63.7383L63.3418 64.1104C63.756 64.3587 64.2941 64.5862 64.9561 64.793C65.6169 64.9997 66.1962 65.0516 66.6934 64.9482L74.6357 64.8242C75.4213 64.8242 76.0332 64.6946 76.4668 64.4365C76.9012 64.178 77.159 63.8928 77.2422 63.583C77.3252 63.2729 77.3295 62.9207 77.2578 62.5273C77.1843 62.1354 77.1121 61.8612 77.04 61.7061C76.968 61.5507 76.9003 61.4216 76.8379 61.3184C75.804 59.4562 73.8286 57.1697 70.9121 54.46L70.8496 54.3984L70.7881 54.3369H70.7568C69.4333 53.0752 68.5952 52.2264 68.2441 51.792C67.6019 50.9646 67.4576 50.127 67.8086 49.2783C68.0566 48.6371 68.9887 47.2835 70.6016 45.2148C71.45 44.1184 72.122 43.2392 72.6182 42.5771C76.1968 37.8196 77.7484 34.779 77.2725 33.4551L77.0869 33.1455C76.9625 32.9594 76.6421 32.7891 76.126 32.6338C75.6083 32.4787 74.9465 32.4533 74.1396 32.5566L65.2041 32.6182C65.0593 32.5669 64.8523 32.5716 64.583 32.6338L64.1797 32.7275L64.0244 32.8047L63.9004 32.8984C63.7971 32.9602 63.6836 33.0687 63.5596 33.2236C63.436 33.3783 63.3326 33.5598 63.25 33.7666C62.2772 36.2695 61.1711 38.597 59.9297 40.748C59.1644 42.0306 58.4612 43.1419 57.8193 44.083C57.1783 45.0238 56.6401 45.7168 56.2061 46.1611C55.7716 46.6057 55.3795 46.9623 55.0273 47.2314C54.6756 47.5007 54.4066 47.6149 54.2207 47.5732C54.0343 47.5316 53.8585 47.4905 53.6924 47.4492C53.4032 47.263 53.1706 47.0098 52.9951 46.6895C52.8188 46.3689 52.6997 45.9646 52.6377 45.4785C52.576 44.9924 52.5397 44.5743 52.5293 44.2227C52.5196 43.8713 52.5239 43.3736 52.5449 42.7324C52.5664 42.0912 52.5762 41.6572 52.5762 41.4297C52.5762 40.6436 52.5913 39.7905 52.6221 38.8701C52.6534 37.9496 52.679 37.2199 52.7002 36.6826C52.7213 36.1448 52.7314 35.5754 52.7314 34.9756C52.7314 34.376 52.6942 33.9058 52.6221 33.5645C52.55 33.2228 52.4417 32.8895 52.2979 32.5713C52.1528 32.2507 51.9398 32.0022 51.6611 31.8262C51.382 31.6504 51.035 31.5109 50.6221 31.4072C49.5257 31.1591 48.1291 31.0257 46.4326 31.0049Z" fill="#C64994"/>
<path d="M89.1426 5.85742L90.5568 4.44321L89.1426 5.85742ZM89.1426 90.1426L90.5568 91.5568L89.1426 90.1426ZM5.85742 90.1426L4.44321 91.5568L5.85742 90.1426ZM0 40H-2H0ZM46.4326 31.0049L46.4572 29.005L46.4541 29.005L46.4326 31.0049ZM39.0176 31.749L38.1369 29.9534L38.1135 29.9648L38.0905 29.9769L39.0176 31.749ZM37.8389 32.6797L36.3486 31.3459L36.319 31.379L36.2909 31.4133L37.8389 32.6797ZM37.6826 33.4248L37.3805 35.4019L37.3863 35.4027L37.6826 33.4248ZM40.3203 34.7588L42.1082 33.8625L42.0321 33.7107L41.9315 33.5739L40.3203 34.7588ZM40.5068 35.1309L38.7189 36.0272L38.7323 36.0538L38.7464 36.0801L40.5068 35.1309ZM40.9414 36.5586L42.898 36.144L42.8978 36.1433L40.9414 36.5586ZM41.2207 38.8223L39.2232 38.9215L39.2241 38.9401L39.2254 38.9587L41.2207 38.8223ZM41.2207 42.7012L43.2115 42.8928L43.2116 42.8923L41.2207 42.7012ZM40.9258 45.2148L42.902 45.5224L42.902 45.5224L40.9258 45.2148ZM40.5068 46.6729L42.2953 47.5681L42.2958 47.5671L40.5068 46.6729ZM40.1338 47.3555L38.5358 46.1528L38.5351 46.1537L40.1338 47.3555ZM39.9795 47.5098L40.6988 49.3759L40.7894 49.341L40.8763 49.2974L39.9795 47.5098ZM39.1416 47.666L39.1431 45.666H39.1416V47.666ZM38.0869 47.2314L36.9393 48.8694L36.9397 48.8697L38.0869 47.2314ZM36.7988 46.0361L35.2954 47.3551L35.2956 47.3553L36.7988 46.0361ZM35.2939 43.9111L33.5892 44.9569L33.5895 44.9575L35.2939 43.9111ZM33.5566 40.6846L35.3573 39.8142L35.3341 39.7661L35.3083 39.7194L33.5566 40.6846ZM33.0605 39.7842L31.2977 40.7288L31.3032 40.7391L31.3088 40.7493L33.0605 39.7842ZM31.7881 37.2559L33.5868 36.3815L33.5868 36.3813L31.7881 37.2559ZM30.3613 34.0439L28.4921 34.7553L28.498 34.7709L28.5043 34.7864L30.3613 34.0439ZM29.6162 33.0518L30.7495 31.4038L30.7007 31.3702L30.65 31.3396L29.6162 33.0518ZM29.4609 32.958L28.212 34.5201L28.3147 34.6022L28.4272 34.6701L29.4609 32.958ZM28.9648 32.6943L29.7253 30.8445L29.7215 30.843L28.9648 32.6943ZM28.251 32.4932L28.5742 30.5195L28.4065 30.492L28.2365 30.4932L28.251 32.4932ZM19.75 32.5547V34.5547H19.7572L19.7645 34.5546L19.75 32.5547ZM17.9814 33.1445L16.412 31.9048L16.3651 31.9643L16.3227 32.0271L17.9814 33.1445ZM17.8564 33.3301L16.1977 32.2126L16.1681 32.2566L16.1408 32.3021L17.8564 33.3301ZM17.7637 33.8271H15.7637V33.8272L17.7637 33.8271ZM17.9502 34.665L16.0779 35.3683L16.093 35.4085L16.1099 35.4481L17.9502 34.665ZM21.999 43.1045L20.2378 44.0523L20.2378 44.0523L21.999 43.1045ZM25.7998 49.6504L27.4768 48.5606L27.4765 48.5602L25.7998 49.6504ZM29.0879 54.3359L30.6798 53.1252L30.6796 53.1249L29.0879 54.3359ZM31.3066 57.1592L32.8123 55.8427L32.8119 55.8423L31.3066 57.1592ZM32.1602 58.0898L30.7459 59.5041L30.7605 59.5186L30.7753 59.5328L32.1602 58.0898ZM32.9355 58.834L34.3499 57.4199L34.3353 57.4053L34.3204 57.391L32.9355 58.834ZM35.123 60.6182L36.2922 58.9955L36.2919 58.9953L35.123 60.6182ZM38.3193 62.667L37.3215 64.4003L37.3229 64.4011L38.3193 62.667ZM42.3994 64.3105L42.9271 62.3814L42.9266 62.3813L42.3994 64.3105ZM46.9297 64.8232V62.8232H46.8738L46.818 62.8264L46.9297 64.8232ZM50.4971 64.8232V66.8232H50.5833L50.6691 66.8158L50.4971 64.8232ZM52.1416 64.1406L53.5921 65.5176L53.653 65.4534L53.7081 65.384L52.1416 64.1406ZM52.2656 63.9844L53.8321 65.2278L53.8815 65.1656L53.9258 65.0996L52.2656 63.9844ZM52.498 63.4111L50.5724 62.8707L50.5711 62.8756L52.498 63.4111ZM52.6064 62.5586L54.6064 62.5588L54.6064 62.5349L54.6059 62.5109L52.6064 62.5586ZM52.8076 60.1543L54.7622 60.5781L54.7622 60.578L52.8076 60.1543ZM53.3359 58.54L51.5795 57.5836L51.5793 57.584L53.3359 58.54ZM54.0029 57.626L52.5884 56.2121L52.5884 56.2121L54.0029 57.626ZM54.5312 57.1758L55.4242 58.9654L55.4332 58.9609L54.5312 57.1758ZM54.7783 57.0674L54.1461 55.1699L54.1388 55.1724L54.1316 55.1748L54.7783 57.0674ZM56.5322 57.5479L55.3604 59.1686L55.3605 59.1686L56.5322 57.5479ZM58.4248 59.3477L59.967 58.0742L59.9661 58.0731L58.4248 59.3477ZM60.5498 61.752L59.0854 63.1141L59.0856 63.1144L60.5498 61.752ZM62.7217 63.7383L61.5733 65.3757L61.6316 65.4166L61.6927 65.4533L62.7217 63.7383ZM63.3418 64.1104L62.3128 65.8253L62.3132 65.8256L63.3418 64.1104ZM64.9561 64.793L65.5531 62.8842L65.5524 62.884L64.9561 64.793ZM66.6934 64.9482L66.6621 62.9485L66.4723 62.9515L66.2863 62.9901L66.6934 64.9482ZM74.6357 64.8242V62.8242H74.6201L74.6045 62.8245L74.6357 64.8242ZM76.4668 64.4365L75.444 62.7179L75.4438 62.7179L76.4668 64.4365ZM77.2422 63.583L79.1737 64.102L79.1742 64.1001L77.2422 63.583ZM77.2578 62.5273L79.2254 62.1686L79.2236 62.1587L77.2578 62.5273ZM77.04 61.7061L75.2258 62.5479L75.2263 62.549L77.04 61.7061ZM76.8379 61.3184L75.0893 62.2892L75.1072 62.3214L75.1262 62.3529L76.8379 61.3184ZM70.9121 54.46L69.5091 55.8853L69.5296 55.9055L69.5508 55.9251L70.9121 54.46ZM70.8496 54.3984L69.4354 55.8127L69.441 55.8182L69.4466 55.8237L70.8496 54.3984ZM70.7881 54.3369L72.2023 52.9227L71.6165 52.3369H70.7881V54.3369ZM70.7568 54.3369L69.3768 55.7845L69.9563 56.3369H70.7568V54.3369ZM68.2441 51.792L66.6642 53.0183L66.6763 53.0338L66.6886 53.0491L68.2441 51.792ZM67.8086 49.2783L69.6567 50.0428L69.6656 50.0214L69.6739 49.9999L67.8086 49.2783ZM70.6016 45.2148L72.1789 46.4446L72.1833 46.4388L70.6016 45.2148ZM72.6182 42.5771L71.0198 41.3749L71.0178 41.3777L72.6182 42.5771ZM77.2725 33.4551L79.1545 32.7785L79.0884 32.5945L78.9879 32.4269L77.2725 33.4551ZM77.0869 33.1455L78.8024 32.1173L78.7771 32.0752L78.7498 32.0343L77.0869 33.1455ZM76.126 32.6338L76.7022 30.7186L76.6999 30.7179L76.126 32.6338ZM74.1396 32.5566L74.1534 34.5566L74.274 34.5558L74.3937 34.5404L74.1396 32.5566ZM65.2041 32.6182L64.5361 34.5033L64.8669 34.6205L65.2179 34.6181L65.2041 32.6182ZM64.583 32.6338L64.1332 30.685L64.1302 30.6857L64.583 32.6338ZM64.1797 32.7275L63.7269 30.7795L63.4991 30.8324L63.2898 30.9364L64.1797 32.7275ZM64.0244 32.8047L63.1345 31.0136L62.9673 31.0967L62.8184 31.2092L64.0244 32.8047ZM63.9004 32.8984L64.9262 34.6153L65.0196 34.5595L65.1064 34.4939L63.9004 32.8984ZM63.5596 33.2236L61.9982 31.9737L61.9971 31.9752L63.5596 33.2236ZM63.25 33.7666L61.3927 33.0248L61.3892 33.0334L61.3859 33.042L63.25 33.7666ZM59.9297 40.748L61.6472 41.7729L61.6546 41.7604L61.6619 41.7477L59.9297 40.748ZM57.8193 44.083L56.167 42.9561L56.1665 42.9569L57.8193 44.083ZM56.2061 46.1611L57.6364 47.559L57.6368 47.5586L56.2061 46.1611ZM55.0273 47.2314L53.813 45.6423L53.8116 45.6434L55.0273 47.2314ZM54.2207 47.5732L54.6576 45.6215L54.6566 45.6213L54.2207 47.5732ZM53.6924 47.4492L52.6098 49.1309L52.8884 49.3103L53.21 49.3902L53.6924 47.4492ZM52.9951 46.6895L54.7492 45.7287L54.7477 45.7258L52.9951 46.6895ZM52.6377 45.4785L50.6536 45.7303L50.6538 45.7318L52.6377 45.4785ZM52.5293 44.2227L50.53 44.2777L50.5302 44.2821L52.5293 44.2227ZM52.5449 42.7324L50.546 42.6654L50.546 42.667L52.5449 42.7324ZM52.5762 41.4297L54.5762 41.4297V41.4297H52.5762ZM52.6221 38.8701L50.6232 38.8022L50.6232 38.8033L52.6221 38.8701ZM52.7002 36.6826L54.6986 36.7614L54.6987 36.761L52.7002 36.6826ZM52.7314 34.9756H54.7314V34.9755L52.7314 34.9756ZM52.6221 33.5645L50.6651 33.9772L50.6653 33.9779L52.6221 33.5645ZM52.2979 32.5713L54.1203 31.7474L54.12 31.7467L52.2979 32.5713ZM51.6611 31.8262L52.7294 30.1354L52.7267 30.1337L51.6611 31.8262ZM50.6221 31.4072L51.109 29.4674L51.0863 29.4617L51.0635 29.4565L50.6221 31.4072ZM55 0V2C64.4846 2 71.397 2.00414 76.6792 2.71418C81.9038 3.4165 85.233 4.77627 87.7284 7.27164L89.1426 5.85742L90.5568 4.44321C87.1943 1.0807 82.8802 -0.488229 77.2121 -1.25016C71.6015 -2.00436 64.3715 -2 55 -2V0ZM89.1426 5.85742L87.7284 7.27164C90.2237 9.767 91.5835 13.0962 92.2858 18.3208C92.9959 23.603 93 30.5153 93 40H95H97C97 30.6285 97.0044 23.3985 96.2502 17.7879C95.4882 12.1198 93.9193 7.80571 90.5568 4.44321L89.1426 5.85742ZM95 40H93V56H95H97V40H95ZM95 56H93C93 65.4846 92.9959 72.397 92.2858 77.6792C91.5835 82.9038 90.2237 86.233 87.7284 88.7284L89.1426 90.1426L90.5568 91.5568C93.9193 88.1943 95.4882 83.8802 96.2502 78.2121C97.0044 72.6015 97 65.3715 97 56H95ZM89.1426 90.1426L87.7284 88.7284C85.233 91.2237 81.9038 92.5835 76.6792 93.2858C71.397 93.9959 64.4846 94 55 94V96V98C64.3715 98 71.6015 98.0044 77.2121 97.2502C82.8802 96.4882 87.1943 94.9193 90.5568 91.5568L89.1426 90.1426ZM55 96V94H40V96V98H55V96ZM40 96V94C30.5153 94 23.603 93.9959 18.3208 93.2858C13.0962 92.5835 9.767 91.2237 7.27164 88.7284L5.85742 90.1426L4.44321 91.5568C7.80571 94.9193 12.1198 96.4882 17.7879 97.2502C23.3985 98.0044 30.6285 98 40 98V96ZM5.85742 90.1426L7.27164 88.7284C4.77627 86.233 3.4165 82.9038 2.71418 77.6792C2.00414 72.397 2 65.4846 2 56H0H-2C-2 65.3715 -2.00436 72.6015 -1.25016 78.2121C-0.488229 83.8802 1.0807 88.1943 4.44321 91.5568L5.85742 90.1426ZM0 56H2V40H0H-2V56H0ZM0 40H2C2 30.5153 2.00414 23.603 2.71418 18.3208C3.4165 13.0962 4.77627 9.767 7.27164 7.27164L5.85742 5.85742L4.44321 4.44321C1.0807 7.80571 -0.488229 12.1198 -1.25016 17.7879C-2.00436 23.3985 -2 30.6285 -2 40H0ZM5.85742 5.85742L7.27164 7.27164C9.767 4.77627 13.0962 3.4165 18.3208 2.71418C23.603 2.00414 30.5153 2 40 2V0V-2C30.6285 -2 23.3985 -2.00436 17.7879 -1.25016C12.1198 -0.488229 7.80571 1.0807 4.44321 4.44321L5.85742 5.85742ZM40 0V2H55V0V-2H40V0ZM46.4326 31.0049L46.4541 29.005C44.4923 28.9839 42.8318 29.0356 41.4941 29.1698C40.2147 29.2982 39.0224 29.5191 38.1369 29.9534L39.0176 31.749L39.8983 33.5447C40.1092 33.4412 40.701 33.2695 41.8934 33.1498C43.0274 33.0361 44.5263 32.9845 46.4112 33.0048L46.4326 31.0049ZM39.0176 31.749L38.0905 29.9769C37.4268 30.3241 36.8467 30.7893 36.3486 31.3459L37.8389 32.6797L39.3292 34.0135C39.5338 33.7848 39.7398 33.6284 39.9447 33.5212L39.0176 31.749ZM37.8389 32.6797L36.2909 31.4133C36.1023 31.6438 35.6987 32.1509 35.5631 32.7966C35.4816 33.1848 35.4466 33.8917 35.9382 34.5508C36.4064 35.1785 37.0505 35.3514 37.3805 35.4019L37.6826 33.4248L37.9847 31.4477C38.1805 31.4777 38.7305 31.604 39.1446 32.1593C39.5821 32.746 39.5332 33.3545 39.4778 33.6184C39.4251 33.8693 39.3325 34.0148 39.3322 34.0154C39.3201 34.0354 39.3308 34.0146 39.3868 33.9461L37.8389 32.6797ZM37.6826 33.4248L37.3863 35.4027C38.3326 35.5445 38.6231 35.8268 38.7091 35.9437L40.3203 34.7588L41.9315 33.5739C40.9832 32.2844 39.5151 31.677 37.9789 31.4469L37.6826 33.4248ZM40.3203 34.7588L38.5324 35.6551L38.7189 36.0272L40.5068 35.1309L42.2948 34.2346L42.1082 33.8625L40.3203 34.7588ZM40.5068 35.1309L38.7464 36.0801C38.729 36.0476 38.756 36.0918 38.8108 36.2718C38.8613 36.4378 38.9201 36.6682 38.985 36.9739L40.9414 36.5586L42.8978 36.1433C42.7512 35.4525 42.5606 34.7258 42.2672 34.1817L40.5068 35.1309ZM40.9414 36.5586L38.9849 36.9732C39.1041 37.5358 39.1865 38.1833 39.2232 38.9215L41.2207 38.8223L43.2182 38.723C43.1728 37.8078 43.0679 36.946 42.898 36.144L40.9414 36.5586ZM41.2207 38.8223L39.2254 38.9587C39.3239 40.3995 39.3194 41.577 39.2299 42.5101L41.2207 42.7012L43.2116 42.8923C43.3285 41.6745 43.324 40.2655 43.216 38.6859L41.2207 38.8223ZM41.2207 42.7012L39.2299 42.5095C39.1276 43.5724 39.034 44.365 38.9496 44.9073L40.9258 45.2148L42.902 45.5224C43.0043 44.8649 43.1067 43.9817 43.2115 42.8928L41.2207 42.7012ZM40.9258 45.2148L38.9496 44.9072C38.8747 45.3882 38.7796 45.6551 38.7179 45.7786L40.5068 46.6729L42.2958 47.5671C42.6061 46.9463 42.7901 46.241 42.902 45.5224L40.9258 45.2148ZM40.5068 46.6729L38.7184 45.7776C38.6305 45.9533 38.5647 46.0795 38.5188 46.1636C38.4958 46.2056 38.4828 46.2279 38.4782 46.2354C38.4684 46.2518 38.4902 46.2134 38.5358 46.1528L40.1338 47.3555L41.7318 48.5582C41.9279 48.2976 42.1396 47.879 42.2953 47.5681L40.5068 46.6729ZM40.1338 47.3555L38.5351 46.1537C38.5397 46.1476 38.5732 46.103 38.6346 46.0416C38.6666 46.0096 38.716 45.9631 38.7826 45.9112C38.8474 45.8606 38.9479 45.7897 39.0827 45.7221L39.9795 47.5098L40.8763 49.2974C41.371 49.0493 41.6612 48.6521 41.7325 48.5572L40.1338 47.3555ZM39.9795 47.5098L39.2602 45.6436C39.2199 45.6591 39.1798 45.666 39.1431 45.666L39.1416 47.666L39.1401 49.666C39.6762 49.6664 40.2046 49.5664 40.6988 49.3759L39.9795 47.5098ZM39.1416 47.666V45.666C39.236 45.666 39.3083 45.6778 39.3538 45.6881C39.3989 45.6983 39.4225 45.7081 39.4228 45.7082C39.4233 45.7084 39.407 45.7016 39.3731 45.6824C39.3395 45.6633 39.2933 45.6346 39.2341 45.5932L38.0869 47.2314L36.9397 48.8697C37.4671 49.239 38.235 49.666 39.1416 49.666V47.666ZM38.0869 47.2314L39.2346 45.5935C38.987 45.42 38.6741 45.1409 38.3021 44.7169L36.7988 46.0361L35.2956 47.3553C35.8131 47.9451 36.3598 48.4634 36.9393 48.8694L38.0869 47.2314ZM36.7988 46.0361L38.3023 44.7172C37.9621 44.3295 37.5276 43.7268 36.9984 42.8647L35.2939 43.9111L33.5895 44.9575C34.1774 45.9151 34.7461 46.729 35.2954 47.3551L36.7988 46.0361ZM35.2939 43.9111L36.9987 42.8653C36.4836 42.0256 35.9359 41.0113 35.3573 39.8142L33.5566 40.6846L31.756 41.555C32.377 42.8398 32.9878 43.9766 33.5892 44.9569L35.2939 43.9111ZM33.5566 40.6846L35.3083 39.7194L34.8123 38.819L33.0605 39.7842L31.3088 40.7493L31.8049 41.6497L33.5566 40.6846ZM33.0605 39.7842L34.8234 38.8396C34.5319 38.2955 34.121 37.4805 33.5868 36.3815L31.7881 37.2559L29.9893 38.1302C30.5308 39.2441 30.9687 40.1148 31.2977 40.7288L33.0605 39.7842ZM31.7881 37.2559L33.5868 36.3813C33.0679 35.3142 32.6126 34.2874 32.2184 33.3015L30.3613 34.0439L28.5043 34.7864C28.937 35.8689 29.432 36.9839 29.9894 38.1304L31.7881 37.2559ZM30.3613 34.0439L32.2306 33.3326C31.9428 32.5765 31.4628 31.8944 30.7495 31.4038L29.6162 33.0518L28.4829 34.6997C28.4756 34.6946 28.4683 34.6887 28.4619 34.6825C28.4556 34.6764 28.4524 34.6724 28.4521 34.672C28.4512 34.6707 28.4684 34.6929 28.4921 34.7553L30.3613 34.0439ZM29.6162 33.0518L30.65 31.3396L30.4947 31.2459L29.4609 32.958L28.4272 34.6701L28.5825 34.7639L29.6162 33.0518ZM29.4609 32.958L30.7099 31.3959C30.3798 31.132 30.0014 30.9581 29.7253 30.8445L28.9648 32.6943L28.2044 34.5441C28.2387 34.5582 28.2656 34.57 28.2859 34.5794C28.3063 34.5888 28.3176 34.5947 28.3214 34.5966C28.3231 34.5975 28.3222 34.5971 28.319 34.5953C28.3159 34.5935 28.3098 34.5899 28.3013 34.5845C28.2927 34.5791 28.2808 34.5713 28.2662 34.561C28.2517 34.5507 28.2333 34.5371 28.212 34.5201L29.4609 32.958ZM28.9648 32.6943L29.7215 30.843C29.3508 30.6915 28.9656 30.5836 28.5742 30.5195L28.251 32.4932L27.9278 34.4669C28.0257 34.4829 28.1198 34.5096 28.2082 34.5457L28.9648 32.6943ZM28.251 32.4932L28.2365 30.4932L19.7355 30.5547L19.75 32.5547L19.7645 34.5546L28.2655 34.4931L28.251 32.4932ZM19.75 32.5547V30.5547C18.7019 30.5547 17.3066 30.7723 16.412 31.9048L17.9814 33.1445L19.5509 34.3842C19.4855 34.4669 19.417 34.5239 19.3628 34.5594C19.311 34.5934 19.2808 34.6023 19.2893 34.5994C19.2986 34.5964 19.3384 34.5844 19.4183 34.5736C19.4979 34.5629 19.6069 34.5547 19.75 34.5547V32.5547ZM17.9814 33.1445L16.3227 32.0271L16.1977 32.2126L17.8564 33.3301L19.5152 34.4475L19.6402 34.262L17.9814 33.1445ZM17.8564 33.3301L16.1408 32.3021C15.7898 32.888 15.7637 33.511 15.7637 33.8271H17.7637H19.7637C19.7637 33.7959 19.7664 33.8264 19.753 33.8984C19.741 33.9625 19.7015 34.1419 19.5721 34.358L17.8564 33.3301ZM17.7637 33.8271L15.7637 33.8272C15.7637 34.3901 15.9109 34.9236 16.0779 35.3683L17.9502 34.665L19.8225 33.9618C19.786 33.8646 19.7693 33.8029 19.7626 33.7728C19.7554 33.7408 19.7637 33.7628 19.7637 33.8271L17.7637 33.8271ZM17.9502 34.665L16.1099 35.4481C17.374 38.4192 18.75 41.2875 20.2378 44.0523L21.999 43.1045L23.7602 42.1567C22.3318 39.5024 21.0084 36.7442 19.7905 33.882L17.9502 34.665ZM21.999 43.1045L20.2378 44.0523C21.7094 46.7868 23.006 49.0226 24.1231 50.7406L25.7998 49.6504L27.4765 48.5602C26.4431 46.9708 25.2048 44.8412 23.7602 42.1567L21.999 43.1045ZM25.7998 49.6504L24.1228 50.7402C25.2229 52.433 26.3468 54.0363 27.4962 55.547L29.0879 54.3359L30.6796 53.1249C29.5949 51.6994 28.5276 50.1776 27.4768 48.5606L25.7998 49.6504ZM29.0879 54.3359L27.496 55.5467C28.6031 57.0023 29.3859 58.0012 29.8014 58.4761L31.3066 57.1592L32.8119 55.8423C32.5038 55.4902 31.8067 54.6069 30.6798 53.1252L29.0879 54.3359ZM31.3066 57.1592L29.801 58.4756C30.1735 58.9016 30.4922 59.2504 30.7459 59.5041L32.1602 58.0898L33.5744 56.6756C33.4145 56.5158 33.1641 56.2451 32.8123 55.8427L31.3066 57.1592ZM32.1602 58.0898L30.7753 59.5328L31.5507 60.277L32.9355 58.834L34.3204 57.391L33.545 56.6469L32.1602 58.0898ZM32.9355 58.834L31.5212 60.248C32.1277 60.8547 32.9555 61.5218 33.9542 62.241L35.123 60.6182L36.2919 58.9953C35.3669 58.329 34.7362 57.8063 34.3499 57.4199L32.9355 58.834ZM35.123 60.6182L33.9539 62.2408C34.9782 62.9789 36.1019 63.6982 37.3215 64.4003L38.3193 62.667L39.3172 60.9337C38.1994 60.2902 37.1921 59.6439 36.2922 58.9955L35.123 60.6182ZM38.3193 62.667L37.3229 64.4011C38.6641 65.1718 40.187 65.7794 41.8723 66.2398L42.3994 64.3105L42.9266 62.3813C41.5091 61.994 40.3122 61.5055 39.3158 60.9329L38.3193 62.667ZM42.3994 64.3105L41.8717 66.2397C43.6123 66.7158 45.3387 66.9154 47.0414 66.8201L46.9297 64.8232L46.818 62.8264C45.5833 62.8954 44.2891 62.754 42.9271 62.3814L42.3994 64.3105ZM46.9297 64.8232V66.8232H50.4971V64.8232V62.8232H46.9297V64.8232ZM50.4971 64.8232L50.6691 66.8158C51.711 66.7259 52.7822 66.3707 53.5921 65.5176L52.1416 64.1406L50.6911 62.7636C50.7154 62.7381 50.7253 62.7414 50.6842 62.7585C50.6364 62.7783 50.5261 62.8133 50.325 62.8307L50.4971 64.8232ZM52.1416 64.1406L53.7081 65.384L53.8321 65.2278L52.2656 63.9844L50.6991 62.741L50.5751 62.8972L52.1416 64.1406ZM52.2656 63.9844L53.9258 65.0996C54.1876 64.7099 54.3341 64.2738 54.425 63.9466L52.498 63.4111L50.5711 62.8756C50.5609 62.9121 50.5522 62.9404 50.5452 62.9615C50.5382 62.9827 50.5338 62.9939 50.5326 62.9966C50.5314 62.9997 50.5351 62.9901 50.5451 62.9706C50.5502 62.9605 50.5575 62.9469 50.5671 62.9302C50.5768 62.9136 50.5894 62.8929 50.6054 62.8691L52.2656 63.9844ZM52.498 63.4111L54.4236 63.9516C54.553 63.4908 54.6064 63.0211 54.6064 62.5588L52.6064 62.5586L50.6064 62.5584C50.6064 62.7152 50.5881 62.8148 50.5725 62.8707L52.498 63.4111ZM52.6064 62.5586L54.6059 62.5109C54.5877 61.7488 54.6472 61.1087 54.7622 60.5781L52.8076 60.1543L50.853 59.7305C50.6587 60.6267 50.5828 61.5902 50.607 62.6062L52.6064 62.5586ZM52.8076 60.1543L54.7622 60.578C54.9022 59.9322 55.0303 59.6105 55.0926 59.4961L53.3359 58.54L51.5793 57.584C51.2473 58.194 51.0223 58.9498 50.853 59.7306L52.8076 60.1543ZM53.3359 58.54L55.0924 59.4965C55.2132 59.2748 55.3263 59.1311 55.4175 59.0399L54.0029 57.626L52.5884 56.2121C52.1849 56.6158 51.8526 57.0819 51.5795 57.5836L53.3359 58.54ZM54.0029 57.626L55.4175 59.0399C55.4673 58.99 55.5094 58.9492 55.5442 58.9166C55.5795 58.8835 55.6037 58.862 55.6182 58.8497C55.6251 58.8438 55.6281 58.8414 55.6275 58.8419C55.627 58.8423 55.6208 58.8472 55.6096 58.8553C55.5986 58.8632 55.5787 58.8772 55.5509 58.8946C55.5238 58.9116 55.4808 58.9371 55.4242 58.9654L54.5312 57.1758L53.6383 55.3862C53.3603 55.5249 53.1391 55.7069 53.0242 55.8048C52.8807 55.9271 52.7333 56.0671 52.5884 56.2121L54.0029 57.626ZM54.5312 57.1758L55.4332 58.9609C55.4445 58.9552 55.4532 58.9509 55.4596 58.9479C55.4659 58.9449 55.4693 58.9434 55.4698 58.9432C55.4703 58.943 55.4671 58.9444 55.4603 58.9471C55.4536 58.9497 55.4417 58.9542 55.4251 58.9599L54.7783 57.0674L54.1316 55.1748C53.9528 55.2359 53.7814 55.3138 53.6293 55.3907L54.5312 57.1758ZM54.7783 57.0674L55.4105 58.9648C55.3277 58.9924 55.2471 59.0039 55.1778 59.0042C55.1107 59.0046 55.0698 58.9946 55.0613 58.9922C55.0541 58.9903 55.0764 58.9956 55.13 59.0232C55.1836 59.0507 55.2603 59.0963 55.3604 59.1686L56.5322 57.5479L57.7041 55.9271C56.819 55.2872 55.5427 54.7046 54.1461 55.1699L54.7783 57.0674ZM56.5322 57.5479L55.3605 59.1686C55.8794 59.5438 56.3883 60.0234 56.8835 60.6222L58.4248 59.3477L59.9661 58.0731C59.2816 57.2454 58.5297 56.524 57.704 55.9271L56.5322 57.5479ZM58.4248 59.3477L56.8826 60.6211C57.5037 61.3732 58.2395 62.2047 59.0854 63.1141L60.5498 61.752L62.0142 60.3898C61.2059 59.5208 60.525 58.7499 59.967 58.0742L58.4248 59.3477ZM60.5498 61.752L59.0856 63.1144C59.9593 64.0533 60.7913 64.8273 61.5733 65.3757L62.7217 63.7383L63.87 62.1008C63.4115 61.7792 62.7958 61.2298 62.014 60.3895L60.5498 61.752ZM62.7217 63.7383L61.6927 65.4533L62.3128 65.8253L63.3418 64.1104L64.3708 62.3954L63.7507 62.0233L62.7217 63.7383ZM63.3418 64.1104L62.3132 65.8256C62.9083 66.1824 63.6065 66.4667 64.3597 66.702L64.9561 64.793L65.5524 62.884C64.9817 62.7057 64.6037 62.535 64.3704 62.3951L63.3418 64.1104ZM64.9561 64.793L64.359 66.7018C65.2313 66.9746 66.17 67.0998 67.1004 66.9064L66.6934 64.9482L66.2863 62.9901C66.2224 63.0034 66.0025 63.0247 65.5531 62.8842L64.9561 64.793ZM66.6934 64.9482L66.7246 66.948L74.667 66.824L74.6357 64.8242L74.6045 62.8245L66.6621 62.9485L66.6934 64.9482ZM74.6357 64.8242V66.8242C75.5982 66.8242 76.6202 66.6727 77.4898 66.1551L76.4668 64.4365L75.4438 62.7179C75.4542 62.7118 75.4088 62.7409 75.269 62.7705C75.1293 62.8001 74.9231 62.8242 74.6357 62.8242V64.8242ZM76.4668 64.4365L77.4896 66.1552C78.1288 65.7748 78.8964 65.1338 79.1737 64.102L77.2422 63.583L75.3107 63.0641C75.366 62.8582 75.4616 62.7329 75.505 62.6851C75.5429 62.6433 75.5399 62.6608 75.444 62.7179L76.4668 64.4365ZM77.2422 63.583L79.1742 64.1001C79.3512 63.4386 79.3364 62.7778 79.2254 62.1686L77.2578 62.5273L75.2902 62.8861C75.3226 63.0637 75.2992 63.1071 75.3102 63.0659L77.2422 63.583ZM77.2578 62.5273L79.2236 62.1587C79.15 61.7667 79.0424 61.269 78.8537 60.8631L77.04 61.7061L75.2263 62.549C75.2051 62.5034 75.1969 62.4775 75.1986 62.4826C75.1996 62.4856 75.2054 62.5033 75.215 62.5396C75.2347 62.614 75.2609 62.7296 75.2921 62.8959L77.2578 62.5273ZM77.04 61.7061L78.8542 60.8642C78.761 60.6633 78.6598 60.4662 78.5496 60.2839L76.8379 61.3184L75.1262 62.3529C75.1409 62.3771 75.1749 62.4381 75.2258 62.5479L77.04 61.7061ZM76.8379 61.3184L78.5864 60.3475C77.3968 58.205 75.2347 55.7462 72.2735 52.9948L70.9121 54.46L69.5508 55.9251C72.4224 58.5932 74.2111 60.7075 75.0893 62.2892L76.8379 61.3184ZM70.9121 54.46L72.3151 53.0347L72.2526 52.9731L70.8496 54.3984L69.4466 55.8237L69.5091 55.8853L70.9121 54.46ZM70.8496 54.3984L72.2638 52.9842L72.2023 52.9227L70.7881 54.3369L69.3739 55.7511L69.4354 55.8127L70.8496 54.3984ZM70.7881 54.3369V52.3369H70.7568V54.3369V56.3369H70.7881V54.3369ZM70.7568 54.3369L72.1368 52.8893C70.7913 51.6066 70.0538 50.8494 69.7997 50.5349L68.2441 51.792L66.6886 53.0491C67.1366 53.6034 68.0753 54.5438 69.3768 55.7845L70.7568 54.3369ZM68.2441 51.792L69.8241 50.5657C69.658 50.3518 69.6298 50.2322 69.6246 50.2021C69.6219 50.1863 69.6135 50.1473 69.6567 50.0428L67.8086 49.2783L65.9604 48.5139C65.2923 50.1292 65.6546 51.7176 66.6642 53.0183L68.2441 51.792ZM67.8086 49.2783L69.6739 49.9999C69.6732 50.0016 69.6836 49.9752 69.7143 49.9151C69.7441 49.857 69.7864 49.7799 69.8444 49.6818C69.9613 49.4841 70.1245 49.2304 70.3412 48.9151C70.775 48.2844 71.3841 47.4639 72.1788 46.4446L70.6016 45.2148L69.0243 43.9851C68.2062 45.0345 67.5429 45.9251 67.0453 46.6487C66.5799 47.3254 66.1606 47.995 65.9433 48.5568L67.8086 49.2783ZM70.6016 45.2148L72.1833 46.4388C73.0347 45.3386 73.7136 44.4503 74.2185 43.7766L72.6182 42.5771L71.0178 41.3777C70.5303 42.0281 69.8653 42.8983 69.0198 43.9909L70.6016 45.2148ZM72.6182 42.5771L74.2165 43.7794C76.0322 41.3655 77.3943 39.3092 78.2473 37.6375C78.6729 36.8033 79.0062 35.9989 79.1912 35.2485C79.3684 34.5294 79.4646 33.6411 79.1545 32.7785L77.2725 33.4551L75.3904 34.1317C75.3183 33.9311 75.3991 33.9193 75.3074 34.2913C75.2234 34.6321 75.0344 35.1334 74.6843 35.8195C73.9858 37.1885 72.7827 39.0312 71.0198 41.3749L72.6182 42.5771ZM77.2725 33.4551L78.9879 32.4269L78.8024 32.1173L77.0869 33.1455L75.3715 34.1737L75.557 34.4833L77.2725 33.4551ZM77.0869 33.1455L78.7498 32.0343C78.4239 31.5466 77.9826 31.2667 77.6931 31.1126C77.3756 30.9436 77.0314 30.8176 76.7022 30.7186L76.126 32.6338L75.5497 34.549C75.638 34.5755 75.7039 34.5986 75.7507 34.6168C75.7985 34.6354 75.817 34.6453 75.8137 34.6436C75.8122 34.6428 75.7697 34.6205 75.706 34.5694C75.6436 34.5194 75.5327 34.4193 75.424 34.2567L77.0869 33.1455ZM76.126 32.6338L76.6999 30.7179C75.8128 30.4522 74.8417 30.4504 73.8856 30.5728L74.1396 32.5566L74.3937 34.5404C75.0513 34.4562 75.4037 34.5052 75.5521 34.5497L76.126 32.6338ZM74.1396 32.5566L74.1259 30.5567L65.1903 30.6182L65.2041 32.6182L65.2179 34.6181L74.1534 34.5566L74.1396 32.5566ZM65.2041 32.6182L65.8721 30.733C65.1852 30.4896 64.5226 30.5952 64.1332 30.685L64.583 32.6338L65.0328 34.5825C65.0756 34.5727 65.0562 34.5812 64.9895 34.5828C64.9272 34.5844 64.7576 34.5818 64.5361 34.5033L65.2041 32.6182ZM64.583 32.6338L64.1302 30.6857L63.7269 30.7795L64.1797 32.7275L64.6325 34.6756L65.0358 34.5819L64.583 32.6338ZM64.1797 32.7275L63.2898 30.9364L63.1345 31.0136L64.0244 32.8047L64.9143 34.5958L65.0696 34.5186L64.1797 32.7275ZM64.0244 32.8047L62.8184 31.2092L62.6944 31.303L63.9004 32.8984L65.1064 34.4939L65.2304 34.4002L64.0244 32.8047ZM63.9004 32.8984L62.8746 31.1816C62.4745 31.4206 62.1856 31.7397 61.9982 31.9737L63.5596 33.2236L65.1209 34.4735C65.1414 34.4479 65.141 34.4515 65.1188 34.4727C65.0989 34.4917 65.0351 34.5502 64.9262 34.6153L63.9004 32.8984ZM63.5596 33.2236L61.9971 31.9752C61.7363 32.3016 61.5389 32.6587 61.3927 33.0248L63.25 33.7666L65.1073 34.5084C65.1263 34.4609 65.1358 34.4549 65.1221 34.4721L63.5596 33.2236ZM63.25 33.7666L61.3859 33.042C60.4467 35.4581 59.3837 37.6928 58.1974 39.7484L59.9297 40.748L61.6619 41.7477C62.9584 39.5011 64.1076 37.0808 65.1141 34.4912L63.25 33.7666ZM59.9297 40.748L58.2122 39.7232C57.4616 40.9811 56.7804 42.0567 56.167 42.9561L57.8193 44.083L59.4716 45.2099C60.142 44.227 60.8672 43.08 61.6472 41.7729L59.9297 40.748ZM57.8193 44.083L56.1665 42.9569C55.5471 43.8659 55.0865 44.445 54.7753 44.7637L56.2061 46.1611L57.6368 47.5586C58.1936 46.9885 58.8095 46.1817 59.4722 45.2091L57.8193 44.083ZM56.2061 46.1611L54.7757 44.7633C54.3826 45.1655 54.064 45.4505 53.813 45.6423L55.0273 47.2314L56.2417 48.8206C56.6951 48.4741 57.1605 48.0459 57.6364 47.559L56.2061 46.1611ZM55.0273 47.2314L53.8116 45.6434C53.708 45.7227 53.7026 45.7109 53.7813 45.6775C53.8388 45.6532 54.1781 45.5142 54.6576 45.6215L54.2207 47.5732L53.7838 49.5249C54.4492 49.6739 55.016 49.4987 55.3424 49.3603C55.69 49.213 55.9949 49.0095 56.2431 48.8195L55.0273 47.2314ZM54.2207 47.5732L54.6566 45.6213C54.4822 45.5824 54.3223 45.5449 54.1748 45.5083L53.6924 47.4492L53.21 49.3902C53.3948 49.4361 53.5864 49.4809 53.7848 49.5252L54.2207 47.5732ZM53.6924 47.4492L54.775 45.7676C54.7738 45.7668 54.7738 45.7667 54.7745 45.7673C54.7752 45.7678 54.7752 45.768 54.7745 45.7672C54.7737 45.7663 54.7642 45.756 54.7492 45.7287L52.9951 46.6895L51.241 47.6502C51.5669 48.2451 52.0234 48.7534 52.6098 49.1309L53.6924 47.4492ZM52.9951 46.6895L54.7477 45.7258C54.7263 45.687 54.6621 45.5429 54.6216 45.2253L52.6377 45.4785L50.6538 45.7318C50.7373 46.3863 50.9114 47.0507 51.2426 47.6531L52.9951 46.6895ZM52.6377 45.4785L54.6218 45.2268C54.5652 44.7808 54.5364 44.4304 54.5284 44.1632L52.5293 44.2227L50.5302 44.2821C50.5431 44.7181 50.5868 45.2041 50.6536 45.7303L52.6377 45.4785ZM52.5293 44.2227L54.5285 44.1676C54.5205 43.8738 54.5235 43.4212 54.5439 42.7978L52.5449 42.7324L50.546 42.667C50.5244 43.326 50.5188 43.8688 50.5301 44.2777L52.5293 44.2227ZM52.5449 42.7324L54.5438 42.7995C54.5653 42.1578 54.5762 41.6941 54.5762 41.4297L52.5762 41.4297L50.5762 41.4297C50.5762 41.6204 50.5675 42.0245 50.546 42.6654L52.5449 42.7324ZM52.5762 41.4297H54.5762C54.5762 40.669 54.5908 39.8383 54.621 38.9369L52.6221 38.8701L50.6232 38.8033C50.5918 39.7426 50.5762 40.6183 50.5762 41.4297H52.5762ZM52.6221 38.8701L54.6209 38.9381C54.6522 38.0175 54.6777 37.2927 54.6986 36.7614L52.7002 36.6826L50.7017 36.6038C50.6803 37.1471 50.6545 37.8818 50.6232 38.8022L52.6221 38.8701ZM52.7002 36.6826L54.6987 36.761C54.7209 36.1935 54.7314 35.5977 54.7314 34.9756H52.7314H50.7314C50.7314 35.5532 50.7216 36.0962 50.7017 36.6043L52.7002 36.6826ZM52.7314 34.9756L54.7314 34.9755C54.7314 34.3166 54.6925 33.6887 54.5789 33.151L52.6221 33.5645L50.6653 33.9779C50.6959 34.1229 50.7314 34.4354 50.7314 34.9756L52.7314 34.9756ZM52.6221 33.5645L54.579 33.1517C54.4777 32.6712 54.3248 32.1999 54.1203 31.7474L52.2979 32.5713L50.4754 33.3952C50.5586 33.5791 50.6223 33.7743 50.6651 33.9772L52.6221 33.5645ZM52.2979 32.5713L54.12 31.7467C53.8237 31.0921 53.3586 30.5329 52.7294 30.1354L51.6611 31.8262L50.5928 33.517C50.5649 33.4993 50.5351 33.4742 50.5096 33.4444C50.4847 33.4153 50.4754 33.3952 50.4757 33.3959L52.2979 32.5713ZM51.6611 31.8262L52.7267 30.1337C52.2244 29.8174 51.6684 29.6078 51.109 29.4674L50.6221 31.4072L50.1352 33.3471C50.4015 33.4139 50.5396 33.4834 50.5956 33.5187L51.6611 31.8262ZM50.6221 31.4072L51.0635 29.4565C49.7791 29.1659 48.2295 29.0268 46.4572 29.005L46.4326 31.0049L46.408 33.0047C48.0288 33.0247 49.2722 33.1523 50.1807 33.3579L50.6221 31.4072Z" fill="white" mask="url(#path-1-inside-1_129_520)"/>
</svg>
