<svg width="40" height="40" viewBox="0 0 40 40" fill="none" xmlns="http://www.w3.org/2000/svg">
<path d="M27.0553 12.9447C25.391 11.2616 23.1799 10.229 20.821 10.0333C18.4622 9.83757 16.1111 10.4916 14.1922 11.8774C12.2733 13.2632 10.9131 15.2894 10.3571 17.5902C9.8012 19.8909 10.0862 22.3146 11.1606 24.4237L10.1079 29.5342C10.0967 29.5853 10.0962 29.6381 10.1066 29.6893C10.1171 29.7405 10.1381 29.789 10.1684 29.8316C10.2119 29.896 10.274 29.9457 10.3464 29.9739C10.4188 30.0021 10.4981 30.0076 10.5737 29.9895L15.5737 28.8026C17.677 29.8489 20.0833 30.1148 22.3643 29.5532C24.6453 28.9915 26.653 27.6387 28.03 25.7354C29.4071 23.8322 30.0641 21.5021 29.8842 19.1599C29.7042 16.8177 28.699 14.6153 27.0474 12.9447H27.0553ZM25.4921 25.4105C24.3411 26.5595 22.859 27.3188 21.2541 27.5817C19.6492 27.8446 18.0022 27.5979 16.5448 26.8763L15.8448 26.5289L12.7737 27.2553V27.2158L13.4211 24.1184L13.079 23.4447C12.3338 21.9833 12.0706 20.3234 12.3274 18.7032C12.5841 17.083 13.3474 15.5858 14.5079 14.4263C15.965 12.9707 17.9404 12.1531 20 12.1531C22.0596 12.1531 24.035 12.9707 25.4921 14.4263L25.5263 14.4737C26.9645 15.9339 27.7674 17.9033 27.76 19.9529C27.7526 22.0024 26.9355 23.966 25.4869 25.4158L25.4921 25.4105Z" fill="#161616"/>
<path d="M25.221 23.1579C24.8447 23.75 24.2473 24.4737 23.5026 24.6552C22.1868 24.971 20.1841 24.6552 17.6762 22.3368L17.6447 22.3079C15.4631 20.271 14.8841 18.5737 15.0131 17.2289C15.0894 16.4631 15.7262 15.7737 16.2631 15.321C16.3484 15.2491 16.4494 15.1981 16.558 15.1721C16.6666 15.1461 16.7798 15.1459 16.8884 15.1715C16.9971 15.1971 17.0983 15.2477 17.1839 15.3194C17.2695 15.391 17.3372 15.4817 17.3815 15.5842L18.1894 17.4105C18.2421 17.5281 18.2619 17.6578 18.2466 17.7857C18.2313 17.9136 18.1815 18.035 18.1026 18.1368L17.692 18.6631C17.6067 18.7724 17.5559 18.9046 17.546 19.0429C17.5362 19.1811 17.5678 19.3192 17.6368 19.4394C18.0267 20.0142 18.4933 20.533 19.0236 20.9816C19.5942 21.5306 20.2412 21.9942 20.9447 22.3579C21.0731 22.4096 21.2139 22.422 21.3494 22.3934C21.4848 22.3648 21.6087 22.2966 21.7052 22.1973L22.1762 21.7184C22.2659 21.622 22.3804 21.5523 22.5072 21.517C22.634 21.4817 22.7681 21.4822 22.8947 21.5184L24.8157 22.0684C24.9246 22.0994 25.0246 22.1555 25.1077 22.2323C25.1909 22.3092 25.2547 22.4045 25.2942 22.5105C25.3336 22.6166 25.3476 22.7305 25.3349 22.8429C25.3221 22.9554 25.2831 23.0633 25.221 23.1579Z" fill="#161616"/>
</svg>
